<mxfile host="app.diagrams.net" modified="2021-12-15T09:19:13.375Z" agent="5.0 (Windows)" etag="mAM-t501rz80NA1fM55_" version="15.9.4" type="github">
  <diagram id="qV4pwJ-D3a9XbADc4EKG" name="Page-1">
    <mxGraphModel dx="755" dy="337" grid="1" gridSize="10" guides="1" tooltips="1" connect="1" arrows="1" fold="1" page="1" pageScale="1" pageWidth="850" pageHeight="1100" math="0" shadow="0">
      <root>
        <mxCell id="0" />
        <mxCell id="1" parent="0" />
        <mxCell id="mck3mBb6Df0MLpiKtGmo-2" value="mp_obj_task_t" style="swimlane;fontStyle=0;childLayout=stackLayout;horizontal=1;startSize=26;fillColor=#d5e8d4;horizontalStack=0;resizeParent=1;resizeParentMax=0;resizeLast=0;collapsible=1;marginBottom=0;strokeColor=#82b366;" vertex="1" parent="1">
          <mxGeometry x="50" y="190" width="140" height="156" as="geometry" />
        </mxCell>
        <mxCell id="mck3mBb6Df0MLpiKtGmo-3" value="+ pairheap: mp_pairheap_t&#xa;" style="text;strokeColor=none;fillColor=none;align=left;verticalAlign=top;spacingLeft=4;spacingRight=4;overflow=hidden;rotatable=0;points=[[0,0.5],[1,0.5]];portConstraint=eastwest;" vertex="1" parent="mck3mBb6Df0MLpiKtGmo-2">
          <mxGeometry y="26" width="140" height="26" as="geometry" />
        </mxCell>
        <mxCell id="mck3mBb6Df0MLpiKtGmo-4" value="+ core: mp_obj_t" style="text;strokeColor=none;fillColor=none;align=left;verticalAlign=top;spacingLeft=4;spacingRight=4;overflow=hidden;rotatable=0;points=[[0,0.5],[1,0.5]];portConstraint=eastwest;" vertex="1" parent="mck3mBb6Df0MLpiKtGmo-2">
          <mxGeometry y="52" width="140" height="26" as="geometry" />
        </mxCell>
        <mxCell id="mck3mBb6Df0MLpiKtGmo-6" value="+ data: mp_obj_t" style="text;strokeColor=none;fillColor=none;align=left;verticalAlign=top;spacingLeft=4;spacingRight=4;overflow=hidden;rotatable=0;points=[[0,0.5],[1,0.5]];portConstraint=eastwest;" vertex="1" parent="mck3mBb6Df0MLpiKtGmo-2">
          <mxGeometry y="78" width="140" height="26" as="geometry" />
        </mxCell>
        <mxCell id="mck3mBb6Df0MLpiKtGmo-7" value="+ state: mp_obj_t" style="text;strokeColor=none;fillColor=none;align=left;verticalAlign=top;spacingLeft=4;spacingRight=4;overflow=hidden;rotatable=0;points=[[0,0.5],[1,0.5]];portConstraint=eastwest;" vertex="1" parent="mck3mBb6Df0MLpiKtGmo-2">
          <mxGeometry y="104" width="140" height="26" as="geometry" />
        </mxCell>
        <mxCell id="mck3mBb6Df0MLpiKtGmo-5" value="+ ph_key: mp_obj_t" style="text;strokeColor=none;fillColor=none;align=left;verticalAlign=top;spacingLeft=4;spacingRight=4;overflow=hidden;rotatable=0;points=[[0,0.5],[1,0.5]];portConstraint=eastwest;" vertex="1" parent="mck3mBb6Df0MLpiKtGmo-2">
          <mxGeometry y="130" width="140" height="26" as="geometry" />
        </mxCell>
      </root>
    </mxGraphModel>
  </diagram>
</mxfile>
